<svg xmlns="http://www.w3.org/2000/svg" width="25.354" height="25.354" viewBox="0 0 25.354 25.354">
  <path id="times-solid_1_" data-name="times-solid (1)" d="M17.483,92.677l7.208-7.208a2.266,2.266,0,0,0,0-3.2l-1.6-1.6a2.266,2.266,0,0,0-3.2,0l-7.208,7.208L5.469,80.663a2.266,2.266,0,0,0-3.2,0l-1.6,1.6a2.266,2.266,0,0,0,0,3.2l7.208,7.208L.663,99.885a2.266,2.266,0,0,0,0,3.2l1.6,1.6a2.266,2.266,0,0,0,3.2,0l7.208-7.208,7.208,7.208a2.266,2.266,0,0,0,3.2,0l1.6-1.6a2.266,2.266,0,0,0,0-3.2Z" transform="translate(0 -80)" fill="#707070" opacity="0.25"/>
</svg>
