<svg xmlns="http://www.w3.org/2000/svg" width="28.978" height="25.354" viewBox="0 0 28.978 25.354">
  <path id="comment-solid" d="M28.948,43.772c0,6.5-6.486,11.772-14.488,11.772A17.328,17.328,0,0,1,8.569,54.53,16.763,16.763,0,0,1,5.5,56.262,11.954,11.954,0,0,1,.878,57.354a.908.908,0,0,1-.645-1.545h0l.017-.017c.017-.017.04-.04.074-.079.062-.068.158-.175.277-.323a10.9,10.9,0,0,0,.86-1.222,8.238,8.238,0,0,0,1.211-3.56,10.289,10.289,0,0,1-2.7-6.837C-.028,37.269,6.458,32,14.46,32S28.948,37.269,28.948,43.772Z" transform="translate(0.03 -32)" fill="#707070"/>
</svg>
