<svg xmlns="http://www.w3.org/2000/svg" width="21" height="24" viewBox="0 0 21 24">
  <path id="user-md-solid" d="M10.5,12a6,6,0,1,0-6-6A6,6,0,0,0,10.5,12ZM4.875,19.875A1.125,1.125,0,1,0,6,18.75,1.122,1.122,0,0,0,4.875,19.875ZM15,13.528v2.3A3.756,3.756,0,0,1,18,19.5v1.955a.752.752,0,0,1-.6.736l-1.509.3a.373.373,0,0,1-.441-.3l-.145-.736a.371.371,0,0,1,.3-.441l.9-.183V19.5a2.251,2.251,0,1,0-4.5.089v1.252l.9.183a.38.38,0,0,1,.3.441l-.145.736a.38.38,0,0,1-.441.3l-1.462-.2a.749.749,0,0,1-.647-.745V19.5a3.759,3.759,0,0,1,3-3.675V13.706c-.1.033-.206.052-.309.089a8.109,8.109,0,0,1-5.381,0,5.181,5.181,0,0,0-1.059-.244v3.825a2.625,2.625,0,1,1-1.5,0V13.608A6.284,6.284,0,0,0,0,19.8v2.1A2.1,2.1,0,0,0,2.1,24H18.9A2.1,2.1,0,0,0,21,21.9V19.8a6.291,6.291,0,0,0-6-6.272Z" fill="#008b8f"/>
</svg>
