<svg xmlns="http://www.w3.org/2000/svg" width="21.982" height="21.982" viewBox="0 0 21.982 21.982">
  <path id="times-solid" d="M15.158,90.991l6.249-6.249a1.964,1.964,0,0,0,0-2.778l-1.389-1.389a1.964,1.964,0,0,0-2.778,0l-6.249,6.249L4.742,80.575a1.964,1.964,0,0,0-2.778,0L.575,81.964a1.964,1.964,0,0,0,0,2.778l6.249,6.249L.575,97.24a1.964,1.964,0,0,0,0,2.778l1.389,1.389a1.964,1.964,0,0,0,2.778,0l6.249-6.249,6.249,6.249a1.964,1.964,0,0,0,2.778,0l1.389-1.389a1.964,1.964,0,0,0,0-2.778Z" transform="translate(0 -80)" fill="#fff"/>
</svg>
